PathFileType	4	(X/Y/Z)	/Users/itak/Documents/Research/Walk-IL/dataset/trc/00200_00008.trc
DataRate	CameraRate	NumFrames	NumMarkers	Units	OrigDataRate	OrigDataStartFrame	OrigNumFrames
100.000000	100.000000	4	53	mm	100.000000	0	550
Frame#	Time	RPSI			LPSI			L3			STRN			T10			C7			CLAV			RBAK			LBAK			LSHO			LUPA			LAEL			LAOL			LWTS			LWPS			LFRA			LIFD			LHPS			LHTS			RSHO			RUPA			RAEL			RAOL			RWTS			RWPS			RFRA			RIFD			RHTS			RHPS			RBHD			LFHD			RFHD			LBHD			LHIP			RHIP			RASI			LASI			LKNE			LTHI			LANK			LTIP			LTOE			LMT1			LMT5			LHEE			RKNE			RTHI			RANK			RTIP			RTOE			RMT1			RMT5			RHEE			
		X1	Y1	Z1	X2	Y2	Z2	X3	Y3	Z3	X4	Y4	Z4	X5	Y5	Z5	X6	Y6	Z6	X7	Y7	Z7	X8	Y8	Z8	X9	Y9	Z9	X10	Y10	Z10	X11	Y11	Z11	X12	Y12	Z12	X13	Y13	Z13	X14	Y14	Z14	X15	Y15	Z15	X16	Y16	Z16	X17	Y17	Z17	X18	Y18	Z18	X19	Y19	Z19	X20	Y20	Z20	X21	Y21	Z21	X22	Y22	Z22	X23	Y23	Z23	X24	Y24	Z24	X25	Y25	Z25	X26	Y26	Z26	X27	Y27	Z27	X28	Y28	Z28	X29	Y29	Z29	X30	Y30	Z30	X31	Y31	Z31	X32	Y32	Z32	X33	Y33	Z33	X34	Y34	Z34	X35	Y35	Z35	X36	Y36	Z36	X37	Y37	Z37	X38	Y38	Z38	X39	Y39	Z39	X40	Y40	Z40	X41	Y41	Z41	X42	Y42	Z42	X43	Y43	Z43	X44	Y44	Z44	X45	Y45	Z45	X46	Y46	Z46	X47	Y47	Z47	X48	Y48	Z48	X49	Y49	Z49	X50	Y50	Z50	X51	Y51	Z51	X52	Y52	Z52	X53	Y53	Z53	

1	0	-1721.630615234375	1053.845092773438	-579.3306884765625	-1712.842895507812	1052.380004882812	-703.6155395507812	-1716.318603515625	1090.195556640625	-639.5957641601562	-1457.767822265625	1301.486450195312	-633.7825317382812	-1750.925048828125	1245.83056640625	-649.2266845703125	-1687.041870117188	1515.73388671875	-658.2291259765625	-1485.2734375	1415.0439453125	-644.8422241210938	-1758.393188476562	1341.127563476562	-551.36181640625	-1689.359130859375	1491.775268554688	-760.154052734375	-1607.322387695312	1479.4384765625	-834.6668701171875	-1632.116455078125	1346.317749023438	-909.3143310546875	-1606.10400390625	1126.684936523438	-923.390625	-1661.120239257812	1111.760131835938	-855.6790771484375	-1497.155395507812	896.6842041015625	-878.4053955078125	-1571.99853515625	874.9541015625	-927.810546875	-1588.755615234375	1016.729919433594	-935.0064697265625	-1475.5869140625	712.9922485351562	-854.2488403320312	-1550.051879882812	807.8460083007812	-922.17578125	-1481.693237304688	818.6802978515625	-896.8214721679688	-1632.639892578125	1495.692993164062	-474.2381286621094	-1653.482666015625	1428.893188476562	-405.2270812988281	-1654.60107421875	1137.987548828125	-350.9225463867188	-1659.418090820312	1130.4833984375	-448.947021484375	-1505.785278320312	916.6362915039062	-371.3773803710938	-1579.418701171875	897.059326171875	-322.4191284179688	-1627.081909179688	1066.840698242188	-332.1457824707031	-1486.109497070312	726.9072875976562	-394.4924621582031	-1477.057373046875	823.7033081054688	-364.2040405273438	-1548.322021484375	815.8737182617188	-323.9061279296875	-1644.834838867188	1671.96240234375	-579.6936645507812	-1484.177490234375	1738.943969726562	-711.3338012695312	-1482.326171875	1737.365844726562	-581.839111328125	-1653.37353515625	1679.65625	-716.0780029296875	-1603.255737304688	989.7747802734375	-814.4638061523438	-1560.964965820312	1015.618469238281	-438.7779541015625	-1485.45751953125	1042.916137695312	-497.8350219726562	-1480.727905273438	1027.117919921875	-754.3864135742188	-1605.935302734375	494.3413391113281	-771.8311767578125	-1592.051391601562	635.7147827148438	-801.65576171875	-1703.22705078125	41.19583129882812	-770.0967407226562	-1652.320922851562	274.6605224609375	-783.95703125	-1480.207275390625	38.34882354736328	-760.42333984375	-1529.473876953125	38.73847579956055	-710.0305786132812	-1597.378295898438	36.80438232421875	-816.0315551757812	-1748.665405273438	38.77652359008789	-697.3753662109375	-1580.068969726562	515.2474975585938	-454.0339660644531	-1531.791625976562	782.365966796875	-429.7168884277344	-1679.14111328125	38.10683822631836	-441.1241760253906	-1575.250366210938	397.5348205566406	-469.0228881835938	-1455.055908203125	40.64957809448242	-477.6459655761719	-1511.671630859375	38.02331924438477	-522.5327758789062	-1565.821166992188	37.05237579345703	-408.4937438964844	-1729.5517578125	32.84955596923828	-508.4950256347656	
2	0.01	-1721.593872070312	1053.81591796875	-579.24072265625	-1712.872314453125	1052.356811523438	-703.5000610351562	-1716.315307617188	1090.171508789062	-639.4922485351562	-1457.850952148438	1301.465698242188	-633.7913818359375	-1750.955932617188	1245.828979492188	-649.1106567382812	-1687.08935546875	1515.726806640625	-658.1114501953125	-1485.290771484375	1415.02978515625	-644.8269653320312	-1758.349365234375	1341.128051757812	-551.2182006835938	-1689.401733398438	1491.770751953125	-760.0635986328125	-1607.417358398438	1479.44482421875	-834.5846557617188	-1632.146606445312	1346.335083007812	-909.2520751953125	-1605.984130859375	1126.697021484375	-923.4234008789062	-1660.953491210938	1111.701538085938	-855.7386474609375	-1496.684692382812	896.9542236328125	-878.4493408203125	-1571.349365234375	875.0211181640625	-927.804931640625	-1588.466430664062	1016.758422851562	-935.0431518554688	-1474.907348632812	713.27880859375	-854.3711547851562	-1549.072387695312	807.4385375976562	-921.9953002929688	-1480.916015625	818.9649047851562	-896.75390625	-1632.569702148438	1495.6865234375	-474.1531066894531	-1653.34912109375	1428.894653320312	-405.1221313476562	-1654.37451171875	1137.962158203125	-350.8542785644531	-1659.269775390625	1130.4853515625	-448.876953125	-1505.546997070312	916.6725463867188	-371.5243225097656	-1579.073120117188	897.0533447265625	-322.4880065917969	-1626.817993164062	1066.8173828125	-332.1311950683594	-1485.822021484375	726.9522094726562	-394.6948547363281	-1476.748779296875	823.720703125	-364.3671875	-1547.968627929688	815.8761596679688	-324.0226135253906	-1644.712036132812	1671.905151367188	-579.5053100585938	-1484.166381835938	1738.950317382812	-711.26513671875	-1482.184936523438	1737.249389648438	-581.7726440429688	-1653.364013671875	1679.72265625	-715.883544921875	-1603.3330078125	989.7783203125	-814.4197387695312	-1560.722412109375	1015.611389160156	-438.6856079101562	-1485.385131835938	1042.915771484375	-497.8392639160156	-1480.778442382812	1027.144653320312	-754.3980102539062	-1605.901000976562	494.3512878417969	-771.8041381835938	-1592.053466796875	635.7227172851562	-801.6348266601562	-1703.193725585938	41.16741180419922	-770.070068359375	-1652.334838867188	274.6855163574219	-783.94189453125	-1480.2021484375	38.34737396240234	-760.42626953125	-1529.474243164062	38.74018859863281	-710.032470703125	-1597.372802734375	36.80613708496094	-816.0262451171875	-1748.665283203125	38.78476333618164	-697.3565673828125	-1580.00048828125	515.2394409179688	-454.0289001464844	-1531.5380859375	782.3670043945312	-429.7577209472656	-1679.141357421875	38.10705947875977	-441.1241760253906	-1575.232666015625	397.5222473144531	-469.0320739746094	-1455.053588867188	40.64192581176758	-477.6448974609375	-1511.670532226562	38.02053833007812	-522.5316162109375	-1565.828491210938	37.05132675170898	-408.5054626464844	-1729.553466796875	32.84651184082031	-508.4970397949219	
3	0.02	-1721.544799804688	1053.779663085938	-579.12744140625	-1712.910034179688	1052.330078125	-703.3624267578125	-1716.314819335938	1090.143676757812	-639.3631591796875	-1457.954711914062	1301.44091796875	-633.7985229492188	-1750.988647460938	1245.82470703125	-648.9644165039062	-1687.149658203125	1515.718627929688	-657.9725341796875	-1485.305419921875	1415.014892578125	-644.803955078125	-1758.292236328125	1341.121704101562	-551.0432739257812	-1689.453857421875	1491.75927734375	-759.9508056640625	-1607.535400390625	1479.44921875	-834.4795532226562	-1632.178955078125	1346.349853515625	-909.1698608398438	-1605.827514648438	1126.710327148438	-923.459716796875	-1660.747192382812	1111.624633789062	-855.8047485351562	-1496.070190429688	897.2914428710938	-878.488037109375	-1570.518432617188	875.0953979492188	-927.7905883789062	-1588.095825195312	1016.79248046875	-935.0802001953125	-1474.058227539062	713.60302734375	-854.1941528320312	-1547.904296875	807.0860595703125	-921.810546875	-1479.93798828125	819.3098754882812	-896.6685791015625	-1632.482788085938	1495.677734375	-474.0483703613281	-1653.185791015625	1428.894653320312	-404.990966796875	-1654.095581054688	1137.932983398438	-350.7642211914062	-1659.087524414062	1130.487060546875	-448.7850952148438	-1505.237670898438	916.7223510742188	-371.6966857910156	-1578.643920898438	897.0499877929688	-322.5679931640625	-1626.502075195312	1066.790771484375	-332.1149291992188	-1485.436767578125	727.011474609375	-394.9313659667969	-1476.375732421875	823.746337890625	-364.5627136230469	-1547.533325195312	815.8812255859375	-324.1644897460938	-1644.54638671875	1671.836669921875	-579.2586669921875	-1484.1513671875	1738.95361328125	-711.1843872070312	-1482.0087890625	1737.109741210938	-581.6952514648438	-1653.352172851562	1679.813232421875	-715.6470947265625	-1603.41650390625	989.7825317382812	-814.3621215820312	-1560.437133789062	1015.601135253906	-438.5766296386719	-1485.293212890625	1042.9169921875	-497.8442687988281	-1480.8349609375	1027.175659179688	-754.4081420898438	-1605.859985351562	494.3621520996094	-771.7689819335938	-1592.045776367188	635.7272338867188	-801.603759765625	-1703.169921875	41.15399932861328	-770.0469970703125	-1652.344848632812	274.7096557617188	-783.9216918945312	-1480.194213867188	38.34505462646484	-760.42919921875	-1529.472290039062	38.74273300170898	-710.034912109375	-1597.364135742188	36.80960083007812	-816.0195922851562	-1748.665649414062	38.79475021362305	-697.3335571289062	-1579.917846679688	515.2308349609375	-454.0196533203125	-1531.1953125	782.3826293945312	-429.8074645996094	-1679.141479492188	38.10716247558594	-441.1242065429688	-1575.189331054688	397.5133666992188	-469.0372619628906	-1455.050903320312	40.63381958007812	-477.6434326171875	-1511.668823242188	38.01602172851562	-522.5310668945312	-1565.834716796875	37.05043411254883	-408.5193786621094	-1729.554321289062	32.84395599365234	-508.4986877441406	
4	0.03	-1721.483276367188	1053.73828125	-578.995361328125	-1712.953735351562	1052.302001953125	-703.2105102539062	-1716.315551757812	1090.114135742188	-639.2144165039062	-1458.0703125	1301.41455078125	-633.801025390625	-1751.019775390625	1245.81689453125	-648.794189453125	-1687.219482421875	1515.7099609375	-657.8223876953125	-1485.312744140625	1415.001098632812	-644.7720947265625	-1758.223754882812	1341.10546875	-550.84765625	-1689.51318359375	1491.738891601562	-759.820556640625	-1607.670776367188	1479.4501953125	-834.3552856445312	-1632.209716796875	1346.357421875	-909.0693359375	-1605.63720703125	1126.723266601562	-923.4953002929688	-1660.510498046875	1111.53076171875	-855.8700561523438	-1495.323852539062	897.6776123046875	-878.5111083984375	-1569.536743164062	875.1710205078125	-927.7637939453125	-1587.652221679688	1016.829772949219	-935.1112060546875	-1473.071411132812	713.9537963867188	-853.8006591796875	-1546.610107421875	806.8442993164062	-921.639404296875	-1478.802001953125	819.6964111328125	-896.569091796875	-1632.383911132812	1495.666870117188	-473.9293518066406	-1653.00244140625	1428.892578125	-404.8395385742188	-1653.77880859375	1137.90234375	-350.6541137695312	-1658.882080078125	1130.48779296875	-448.6737060546875	-1504.865234375	916.7857666015625	-371.8805847167969	-1578.154541015625	897.0509643554688	-322.6527404785156	-1626.154174804688	1066.762817382812	-332.0968627929688	-1484.957885742188	727.0844116210938	-395.1862487792969	-1475.958374023438	823.7802734375	-364.7785339355469	-1547.038330078125	815.8903198242188	-324.3233032226562	-1644.341186523438	1671.763793945312	-578.9630126953125	-1484.131225585938	1738.950805664062	-711.0973510742188	-1481.805908203125	1736.954956054688	-581.61279296875	-1653.339111328125	1679.927124023438	-715.3828735351562	-1603.496459960938	989.7868041992188	-814.2926635742188	-1560.128540039062	1015.587280273438	-438.4577941894531	-1485.184692382812	1042.920043945312	-497.8495788574219	-1480.8916015625	1027.20849609375	-754.4141845703125	-1605.815307617188	494.3729248046875	-771.7272338867188	-1592.025512695312	635.726806640625	-801.5621948242188	-1703.161865234375	41.16350936889648	-770.0321655273438	-1652.348022460938	274.7302551269531	-783.8968505859375	-1480.18359375	38.34137344360352	-760.4317626953125	-1529.468017578125	38.74586486816406	-710.03759765625	-1597.352783203125	36.81495666503906	-816.011962890625	-1748.665893554688	38.80606842041016	-697.308349609375	-1579.827026367188	515.222412109375	-454.0053405761719	-1530.773193359375	782.4166870117188	-429.8617248535156	-1679.141479492188	38.10712432861328	-441.1242370605469	-1575.119750976562	397.5096435546875	-469.0362243652344	-1455.047607421875	40.62637710571289	-477.6415100097656	-1511.666625976562	38.00957107543945	-522.5316772460938	-1565.838989257812	37.04997253417969	-408.53369140625	-1729.553833007812	32.84233856201172	-508.4996948242188	
